<svg xmlns="http://www.w3.org/2000/svg" xmlns:xlink="http://www.w3.org/1999/xlink" xmlns:lucid="lucid" width="1220" height="896.67"><g transform="translate(-620 -380)" lucid:page-tab-id="0_0"><path d="M500 0h1500v1500H500z" fill="#fff"/><path d="M1080 406c0-3.3 2.7-6 6-6h288c3.3 0 6 2.7 6 6v108c0 3.3-2.7 6-6 6h-288c-3.3 0-6-2.7-6-6z" stroke="#212529" stroke-width="3" fill="#fff"/><use xlink:href="#a" transform="matrix(1,0,0,1,1092,412) translate(20.183159722222214 41.939670138888886)"/><use xlink:href="#b" transform="matrix(1,0,0,1,1092,412) translate(110.72135416666666 41.939670138888886)"/><use xlink:href="#c" transform="matrix(1,0,0,1,1092,412) translate(161.64366319444446 41.939670138888886)"/><use xlink:href="#d" transform="matrix(1,0,0,1,1092,412) translate(180.12239583333331 41.939670138888886)"/><use xlink:href="#e" transform="matrix(1,0,0,1,1092,412) translate(18.859375 72.20225694444444)"/><use xlink:href="#f" transform="matrix(1,0,0,1,1092,412) translate(141.15755208333331 72.20225694444444)"/><use xlink:href="#g" transform="matrix(1,0,0,1,1092,412) translate(159.2890625 72.20225694444444)"/><path d="M860 586.83c0-3.3 2.7-6 6-6h288c3.3 0 6 2.7 6 6v108c0 3.32-2.7 6-6 6H866c-3.3 0-6-2.68-6-6z" stroke="#212529" stroke-width="3" fill="#fff"/><use xlink:href="#h" transform="matrix(1,0,0,1,872,592.8333333333334) translate(7.6668836805556 41.752170138888886)"/><use xlink:href="#i" transform="matrix(1,0,0,1,872,592.8333333333334) translate(50.52712673611115 41.752170138888886)"/><use xlink:href="#j" transform="matrix(1,0,0,1,872,592.8333333333334) translate(69.00585937500003 41.752170138888886)"/><use xlink:href="#k" transform="matrix(1,0,0,1,872,592.8333333333334) translate(150.47287326388889 41.752170138888886)"/><use xlink:href="#l" transform="matrix(1,0,0,1,872,592.8333333333334) translate(201.75325520833331 41.752170138888886)"/><use xlink:href="#m" transform="matrix(1,0,0,1,872,592.8333333333334) translate(35.88411458333336 72.01475694444443)"/><use xlink:href="#n" transform="matrix(1,0,0,1,872,592.8333333333334) translate(59.744791666666686 72.01475694444443)"/><use xlink:href="#o" transform="matrix(1,0,0,1,872,592.8333333333334) translate(131.79340277777777 72.01475694444443)"/><path d="M860 944.33c0-3.3 2.7-6 6-6h288c3.3 0 6 2.7 6 6v108c0 3.32-2.7 6-6 6H866c-3.3 0-6-2.68-6-6z" stroke="#212529" stroke-width="3" fill="#fff"/><use xlink:href="#p" transform="matrix(1,0,0,1,872,950.333333333333) translate(26.563368055555586 23.752170138888886)"/><use xlink:href="#q" transform="matrix(1,0,0,1,872,950.333333333333) translate(117.1015625 23.752170138888886)"/><use xlink:href="#r" transform="matrix(1,0,0,1,872,950.333333333333) translate(135.23307291666669 23.752170138888886)"/><use xlink:href="#s" transform="matrix(1,0,0,1,872,950.333333333333) translate(167.00390625 23.752170138888886)"/><use xlink:href="#t" transform="matrix(1,0,0,1,872,950.333333333333) translate(236.73046875 23.752170138888886)"/><use xlink:href="#u" transform="matrix(1,0,0,1,872,950.333333333333) translate(14.226128472222243 54.014756944444436)"/><use xlink:href="#v" transform="matrix(1,0,0,1,872,950.333333333333) translate(72.35329861111111 54.014756944444436)"/><use xlink:href="#w" transform="matrix(1,0,0,1,872,950.333333333333) translate(104.2109375 54.014756944444436)"/><use xlink:href="#x" transform="matrix(1,0,0,1,872,950.333333333333) translate(172.26649305555554 54.014756944444436)"/><use xlink:href="#y" transform="matrix(1,0,0,1,872,950.333333333333) translate(233.08463541666663 54.014756944444436)"/><use xlink:href="#z" transform="matrix(1,0,0,1,872,950.333333333333) translate(100.1527777777778 84.27734374999999)"/><path d="M1100 1140c33.14 0 60 26.12 60 58.33 0 32.22-26.86 58.34-60 58.34H920c-33.14 0-60-26.12-60-58.34 0-32.2 26.86-58.33 60-58.33z" stroke="#212529" stroke-width="3" fill="#fff"/><use xlink:href="#A" transform="matrix(1,0,0,1,865,1145) translate(22.15886284722223 47.158420138888886)"/><use xlink:href="#B" transform="matrix(1,0,0,1,865,1145) translate(101.88976562500001 47.158420138888886)"/><use xlink:href="#C" transform="matrix(1,0,0,1,865,1145) translate(5.752612847222233 77.42100694444444)"/><use xlink:href="#D" transform="matrix(1,0,0,1,865,1145) translate(54.79775173611112 77.42100694444444)"/><use xlink:href="#E" transform="matrix(1,0,0,1,865,1145) translate(78.65842881944445 77.42100694444444)"/><use xlink:href="#F" transform="matrix(1,0,0,1,865,1145) translate(175.9349045138889 77.42100694444444)"/><path d="M1760 1140c33.14 0 60 26.12 60 58.33 0 32.22-26.86 58.34-60 58.34h-180c-33.14 0-60-26.12-60-58.34 0-32.2 26.86-58.33 60-58.33z" stroke="#212529" stroke-width="3" fill="#fff"/><use xlink:href="#G" transform="matrix(1,0,0,1,1525,1145) translate(31.40365451388889 47.158420138888886)"/><use xlink:href="#H" transform="matrix(1,0,0,1,1525,1145) translate(107.358515625 47.158420138888886)"/><use xlink:href="#I" transform="matrix(1,0,0,1,1525,1145) translate(139.1293489583333 47.158420138888886)"/><use xlink:href="#J" transform="matrix(1,0,0,1,1525,1145) translate(232.52127604166665 47.158420138888886)"/><use xlink:href="#K" transform="matrix(1,0,0,1,1525,1145) translate(104.68924479166667 77.42100694444444)"/><path d="M1080 764.33c0-3.3 2.7-6 6-6h288c3.3 0 6 2.7 6 6v108c0 3.32-2.7 6-6 6h-288c-3.3 0-6-2.68-6-6z" stroke="#212529" stroke-width="3" fill="#fff"/><use xlink:href="#L" transform="matrix(1,0,0,1,1092,770.3333333333333) translate(14.8500434027778 23.752170138888886)"/><use xlink:href="#m" transform="matrix(1,0,0,1,1092,770.3333333333333) translate(142.72547743055554 23.752170138888886)"/><use xlink:href="#M" transform="matrix(1,0,0,1,1092,770.3333333333333) translate(166.58615451388889 23.752170138888886)"/><use xlink:href="#N" transform="matrix(1,0,0,1,1092,770.3333333333333) translate(215.8374565972222 23.752170138888886)"/><use xlink:href="#O" transform="matrix(1,0,0,1,1092,770.3333333333333) translate(9.055772569444457 54.014756944444436)"/><use xlink:href="#P" transform="matrix(1,0,0,1,1092,770.3333333333333) translate(45.74197048611112 54.014756944444436)"/><use xlink:href="#M" transform="matrix(1,0,0,1,1092,770.3333333333333) translate(63.873480902777786 54.014756944444436)"/><use xlink:href="#v" transform="matrix(1,0,0,1,1092,770.3333333333333) translate(113.12478298611111 54.014756944444436)"/><use xlink:href="#Q" transform="matrix(1,0,0,1,1092,770.3333333333333) translate(144.982421875 54.014756944444436)"/><use xlink:href="#R" transform="matrix(1,0,0,1,1092,770.3333333333333) translate(201.5796440972222 54.014756944444436)"/><use xlink:href="#S" transform="matrix(1,0,0,1,1092,770.3333333333333) translate(239.6872829861111 54.014756944444436)"/><use xlink:href="#T" transform="matrix(1,0,0,1,1092,770.3333333333333) translate(35.05946180555557 84.27734374999999)"/><use xlink:href="#v" transform="matrix(1,0,0,1,1092,770.3333333333333) translate(128.4513888888889 84.27734374999999)"/><use xlink:href="#U" transform="matrix(1,0,0,1,1092,770.3333333333333) translate(160.30902777777777 84.27734374999999)"/><path d="M1300 944.33c0-3.3 2.7-6 6-6h288c3.3 0 6 2.7 6 6v108c0 3.32-2.7 6-6 6h-288c-3.3 0-6-2.68-6-6z" stroke="#212529" stroke-width="3" fill="#fff"/><use xlink:href="#p" transform="matrix(1,0,0,1,1312,950.333333333333) translate(26.563368055555586 23.752170138888886)"/><use xlink:href="#q" transform="matrix(1,0,0,1,1312,950.333333333333) translate(117.1015625 23.752170138888886)"/><use xlink:href="#r" transform="matrix(1,0,0,1,1312,950.333333333333) translate(135.23307291666669 23.752170138888886)"/><use xlink:href="#s" transform="matrix(1,0,0,1,1312,950.333333333333) translate(167.00390625 23.752170138888886)"/><use xlink:href="#V" transform="matrix(1,0,0,1,1312,950.333333333333) translate(236.73046875 23.752170138888886)"/><use xlink:href="#u" transform="matrix(1,0,0,1,1312,950.333333333333) translate(14.226128472222243 54.014756944444436)"/><use xlink:href="#v" transform="matrix(1,0,0,1,1312,950.333333333333) translate(72.35329861111111 54.014756944444436)"/><use xlink:href="#w" transform="matrix(1,0,0,1,1312,950.333333333333) translate(104.2109375 54.014756944444436)"/><use xlink:href="#x" transform="matrix(1,0,0,1,1312,950.333333333333) translate(172.26649305555554 54.014756944444436)"/><use xlink:href="#y" transform="matrix(1,0,0,1,1312,950.333333333333) translate(233.08463541666663 54.014756944444436)"/><use xlink:href="#z" transform="matrix(1,0,0,1,1312,950.333333333333) translate(100.1527777777778 84.27734374999999)"/><path d="M1226.55 640.76l2.53 2.53.92 3.4v91.63h-2v-91.36l-.7-2.65-1.8-1.77-2.63-.72h-6.3v-2h6.56zm-64.05 1.07v-2h16.93v2z" fill="#212529"/><path d="M1162.53 641.83h-1.03v-2h1.03zM1229 753.6l-4.64-14.27h9.28z" fill="#212529"/><path d="M1229 756.83l-6-18.5h12zm-3.26-16.5l3.26 10.03 3.26-10.03z" fill="#212529"/><g><use xlink:href="#W" transform="matrix(1,0,0,1,1179.427951388889,628.7282986111112) translate(0 19.00173611111111)"/></g><path d="M1031.37 461h-15.24l-2.64.7-1.8 1.8-.7 2.63v94.7h-2v-94.96l.92-3.42 2.53-2.53 3.42-.92h15.5zm46.13 0h-14.87v-2h14.87z" fill="#212529"/><path d="M1078.5 461h-1.03v-2h1.03zM1010 576.1l-4.64-14.27h9.28z" fill="#212529"/><path d="M1010 579.33l-6-18.5h12zm-3.26-16.5l3.26 10.03 3.26-10.03z" fill="#212529"/><g><use xlink:href="#X" transform="matrix(1,0,0,1,1031.3706597222222,447.8949653277778) translate(0 19.00173611111111)"/></g><path d="M880 760c33.14 0 60 26.12 60 58.33 0 32.22-26.86 58.34-60 58.34H700c-33.14 0-60-26.12-60-58.34 0-32.2 26.86-58.33 60-58.33z" stroke="#212529" stroke-width="3" fill="#fff"/><g><use xlink:href="#Y" transform="matrix(1,0,0,1,645,765) translate(73.17925347222223 60.533420138888886)"/><use xlink:href="#Z" transform="matrix(1,0,0,1,645,765) translate(144.51171875 60.533420138888886)"/></g><path d="M811.37 641.83h-15.24l-2.64.72-1.8 1.77-.7 2.65V740h-2v-93.3l.92-3.4 2.53-2.54 3.42-.93h15.5zm46.13 0h-14.87v-2h14.87z" fill="#212529"/><path d="M858.5 641.83h-1.03v-2h1.03zM790 755.26L785.36 741h9.28z" fill="#212529"/><path d="M790 758.5l-6-18.5h12zm-3.26-16.5l3.26 10.03 3.26-10.03z" fill="#212529"/><g><use xlink:href="#X" transform="matrix(1,0,0,1,811.3706597222222,628.7282986111112) translate(0 19.00173611111111)"/></g><path d="M1030.37 819.33h-14.24l-2.64.72-1.8 1.77-.7 2.65v93.86h-2V824.2l.92-3.4 2.53-2.54 3.42-.93h14.5zm47.13 0h-15.87v-2h15.87z" fill="#212529"/><path d="M1078.5 819.33h-1.03v-2h1.03zM1010 933.6l-4.64-14.27h9.28z" fill="#212529"/><path d="M1010 936.83l-6-18.5h12zm-3.26-16.5l3.26 10.03 3.26-10.03z" fill="#212529"/><g><use xlink:href="#aa" transform="matrix(1,0,0,1,1030.3706597222222,806.2282986111111) translate(0 19.00173611111111)"/></g><path d="M1447.55 818.26l2.53 2.53.92 3.4v94.13h-2v-93.86l-.7-2.65-1.8-1.77-2.63-.72h-7.3v-2h7.56zm-65.05 1.07v-2h16.93v2z" fill="#212529"/><path d="M1382.53 819.33h-1.03v-2h1.03zM1450 933.6l-4.64-14.27h9.28z" fill="#212529"/><path d="M1450 936.83l-6-18.5h12zm-3.26-16.5l3.26 10.03 3.26-10.03z" fill="#212529"/><g><use xlink:href="#ab" transform="matrix(1,0,0,1,1399.427951388889,806.2282986111111) translate(0 19.00173611111111)"/></g><path d="M1180.37 999.33h-17.87v-2h17.87zm99.63 0h-68.37v-2H1280z" fill="#212529"/><path d="M1162.53 999.33h-1.03v-2h1.03zM1295.26 998.33l-14.26 4.64v-9.27z" fill="#212529"/><path d="M1298.5 998.33l-18.5 6.02v-12.03zm-16.5 3.26l10.03-3.27-10.03-3.26z" fill="#212529"/><g><use xlink:href="#X" transform="matrix(1,0,0,1,1180.3706597222222,986.2282986111109) translate(0 19.00173611111111)"/></g><path d="M1011 1120h-2v-21.9h2zm0-46.1h-2v-13.07h2z" fill="#212529"/><path d="M1011 1060.86h-2v-1.03h2zM1010 1135.26l-4.64-14.26h9.28z" fill="#212529"/><path d="M1010 1138.5l-6-18.5h12zm-3.26-16.5l3.26 10.03 3.26-10.03z" fill="#212529"/><g><use xlink:href="#ab" transform="matrix(1,0,0,1,991.4279513888889,1073.8949652777778) translate(0 19.00173611111111)"/></g><path d="M1451 1192.47l-.92 3.4-2.53 2.54-3.42.93H1180v-2h263.87l2.64-.7 1.8-1.8.7-2.63v-94.1h2zm0-118.58h-2v-13.07h2z" fill="#212529"/><path d="M1451 1060.86h-2v-1.03h2zM1179 1202.97l-14.26-4.64 14.26-4.63z" fill="#212529"/><path d="M1180 1204.35l-18.5-6.02 18.5-6zm-12.03-6.02l10.03 3.26v-6.53z" fill="#212529"/><g><use xlink:href="#ab" transform="matrix(1,0,0,1,1431.427951388889,1073.8949652777778) translate(0 19.00173611111111)"/></g><path d="M1667.55 998.26l2.53 2.53.92 3.4V1120h-2v-115.53l-.7-2.65-1.8-1.77-2.63-.72h-12.24v-2h12.5zm-65.05 1.07v-2h17.87v2z" fill="#212529"/><path d="M1602.53 999.33h-1.03v-2h1.03zM1670 1135.26l-4.64-14.26h9.28z" fill="#212529"/><path d="M1670 1138.5l-6-18.5h12zm-3.26-16.5l3.26 10.03 3.26-10.03z" fill="#212529"/><g><use xlink:href="#aa" transform="matrix(1,0,0,1,1620.3706597222222,986.2282986111109) translate(0 19.00173611111111)"/></g><path d="M1667.55 459.92l2.53 2.53.92 3.42V1120h-2V466.13l-.7-2.64-1.8-1.8-2.63-.7h-226.3v-2h226.56zM1382.5 461v-2h17.93v2z" fill="#212529"/><path d="M1382.53 461h-1.03v-2h1.03zM1670 1135.26l-4.64-14.26h9.28z" fill="#212529"/><path d="M1670 1138.5l-6-18.5h12zm-3.26-16.5l3.26 10.03 3.26-10.03z" fill="#212529"/><g><use xlink:href="#ab" transform="matrix(1,0,0,1,1400.427951388889,447.89496527777777) translate(0 19.00173611111111)"/></g><defs><path fill="#212529" d="M201 0v-1462h170v1308h645V0H201" id="ac"/><path fill="#212529" d="M319-1462l-40 528H174l-41-528h186" id="ad"/><path fill="#212529" d="M995-51C878-2 799 19 639 20c-329 2-524-221-524-559 0-326 172-577 481-577 278 0 451 210 446 493v105H287c4 242 121 392 358 393 118 0 235-25 350-74v148zM864-653c2-195-85-324-270-324-190 0-288 139-303 324h573zm0-895c-53 81-206 247-282 307H471v-25c58-73 149-217 191-303h202v21" id="ae"/><path fill="#212529" d="M287-543c0 246 78 424 303 424 259 0 323-148 323-426 0-279-71-432-325-432-220 0-301 191-301 434zm-172-2c0-328 147-571 454-571 150 0 265 57 346 170h9l24-150h131V492H913c5-208-11-450 11-639h-13C834-36 719 20 565 20c-305 0-450-240-450-565" id="af"/><path fill="#212529" d="M563 20c-271 0-399-123-399-399v-717h168v711c1 177 76 266 252 266 250 0 331-135 331-401v-576h166V0H944l-24-147h-9C848-44 724 20 563 20" id="ag"/><path fill="#212529" d="M342 0H176v-1096h166V0zm-82-1282c-61 0-98-43-98-111 0-69 36-110 98-110 59 0 98 43 98 110s-39 111-98 111" id="ah"/><path fill="#212529" d="M1141-549c0 329-147 569-455 569-159 0-273-61-344-161h-12c23 199 7 418 12 633H176v-1588h135l23 150h8c77-108 175-170 344-170 311 0 455 237 455 567zm-172-2c0-242-88-424-307-424-256 0-323 154-320 426 3 280 68 430 324 430 213 0 303-196 303-432" id="ai"/><path fill="#212529" d="M995-51C878-2 799 19 639 20c-329 2-524-221-524-559 0-326 172-577 481-577 278 0 451 210 446 493v105H287c4 242 121 392 358 393 118 0 235-25 350-74v148zM864-653c2-195-85-324-270-324-190 0-288 139-303 324h573" id="aj"/><g id="a"><use transform="matrix(0.010850694444444444,0,0,0.010850694444444444,0,0)" xlink:href="#ac"/><use transform="matrix(0.010850694444444444,0,0,0.010850694444444444,9.754774305555555,0)" xlink:href="#ad"/><use transform="matrix(0.010850694444444444,0,0,0.010850694444444444,13.335503472222221,0)" xlink:href="#ae"/><use transform="matrix(0.010850694444444444,0,0,0.010850694444444444,25.80295138888889,0)" xlink:href="#af"/><use transform="matrix(0.010850694444444444,0,0,0.010850694444444444,39.420572916666664,0)" xlink:href="#ag"/><use transform="matrix(0.010850694444444444,0,0,0.010850694444444444,53.05989583333333,0)" xlink:href="#ah"/><use transform="matrix(0.010850694444444444,0,0,0.010850694444444444,58.68055555555555,0)" xlink:href="#ai"/><use transform="matrix(0.010850694444444444,0,0,0.010850694444444444,72.29817708333333,0)" xlink:href="#aj"/></g><path fill="#212529" d="M25 352c109-1 151-60 151-172v-1276h166V168c0 216-100 324-299 324-63 0-115-8-154-25V332c46 13 91 20 136 20zm235-1634c-61 0-98-43-98-111 0-69 36-110 98-110 59 0 98 43 98 110s-39 111-98 111" id="ak"/><path fill="#212529" d="M621-1116c316 0 501 239 501 567 0 339-180 575-508 569S119-212 115-549c-4-339 178-567 506-567zm-5 141c-239 0-329 168-329 426 0 255 93 430 331 430s332-174 332-430-95-426-334-426" id="al"/><g id="b"><use transform="matrix(0.010850694444444444,0,0,0.010850694444444444,0,0)" xlink:href="#ak"/><use transform="matrix(0.010850694444444444,0,0,0.010850694444444444,5.620659722222222,0)" xlink:href="#al"/><use transform="matrix(0.010850694444444444,0,0,0.010850694444444444,19.04296875,0)" xlink:href="#ag"/><use transform="matrix(0.010850694444444444,0,0,0.010850694444444444,32.682291666666664,0)" xlink:href="#aj"/></g><path fill="#212529" d="M559-1483c258 0 441 142 440 389 0 93-26 184-78 275-109 192-433 475-612 657v8h752V0H100v-143c177-182 479-462 617-641 67-87 110-168 112-303 2-158-106-258-268-254-165 4-240 52-354 139l-88-113c135-112 281-168 440-168" id="am"/><use transform="matrix(0.010850694444444444,0,0,0.010850694444444444,0,0)" xlink:href="#am" id="c"/><path fill="#212529" d="M1368-1116c259 2 372 131 371 401V0h-166v-713c0-168-66-262-230-262-221 0-303 131-303 363V0H874v-713c-1-169-66-262-231-262-235 0-301 142-301 400V0H176v-1096h135l27 150h8c56-99 174-170 324-170 171 0 283 62 336 186h8c60-108 189-187 354-186" id="an"/><path fill="#212529" d="M588-1114c260 0 384 106 385 366V0H850l-33-156h-8C708-34 639 17 442 20 231 23 94-94 94-303c0-221 177-337 531-348l186-6c11-203-40-320-233-320-91 0-195 28-310 84l-51-127c97-53 229-94 371-94zM268-301c-1 123 81 184 207 184 203 0 334-120 332-323v-99c-257 14-539-7-539 238" id="ao"/><path fill="#212529" d="M354-322c-2 123 60 204 176 205 51 1 114-10 150-20v127C647 7 557 20 506 20 294 20 188-92 188-315v-652H31v-80l157-69 70-234h96v254h318v129H354v645" id="ap"/><path fill="#212529" d="M287-543c-1 247 91 418 323 418 91 0 185-20 281-59v147C818 1 725 20 614 20c-329 0-499-221-499-561 0-349 172-575 510-575 96 0 221 26 282 57l-51 141c-61-25-157-50-235-51-223 0-334 142-334 426" id="aq"/><path fill="#212529" d="M690-1114c271 2 402 123 402 399V0H926v-709c-1-177-76-266-252-266-251 0-332 135-332 402V0H176v-1556h166c-4 200 8 426-8 612h10c61-100 187-171 346-170" id="ar"/><path fill="#212529" d="M502-977c-130 0-238 32-238 139 0 75 39 101 95 134 33 19 97 46 192 81 130 48 217 95 263 143s69 108 69 181C883-73 695 20 449 20 304 20 190-3 109-49v-154c91 47 216 86 344 86 149 0 270-36 270-168 0-43-21-76-55-109-56-55-367-158-434-208-74-55-128-109-128-225 0-327 490-342 754-217l-59 135c-110-45-210-68-299-68" id="as"/><g id="d"><use transform="matrix(0.010850694444444444,0,0,0.010850694444444444,0,0)" xlink:href="#an"/><use transform="matrix(0.010850694444444444,0,0,0.010850694444444444,20.670572916666664,0)" xlink:href="#ao"/><use transform="matrix(0.010850694444444444,0,0,0.010850694444444444,33.029513888888886,0)" xlink:href="#ap"/><use transform="matrix(0.010850694444444444,0,0,0.010850694444444444,40.87456597222222,0)" xlink:href="#aq"/><use transform="matrix(0.010850694444444444,0,0,0.010850694444444444,51.45399305555556,0)" xlink:href="#ar"/><use transform="matrix(0.010850694444444444,0,0,0.010850694444444444,65.09331597222223,0)" xlink:href="#as"/></g><path fill="#212529" d="M694-1116c270 0 399 125 398 401V0H926v-709c-1-177-76-266-252-266-250 0-332 133-332 400V0H176v-1096h135l27 150h8c62-101 190-170 348-170" id="at"/><path fill="#212529" d="M575-1430c-169 0-190 146-184 334h279v129H391V0H225v-967H29v-75l196-60c-15-299 97-465 353-465 58 0 126 12 204 35l-43 133c-64-21-119-31-164-31" id="au"/><g id="e"><use transform="matrix(0.010850694444444444,0,0,0.010850694444444444,0,0)" xlink:href="#aq"/><use transform="matrix(0.010850694444444444,0,0,0.010850694444444444,10.579427083333332,0)" xlink:href="#al"/><use transform="matrix(0.010850694444444444,0,0,0.010850694444444444,24.001736111111104,0)" xlink:href="#at"/><use transform="matrix(0.010850694444444444,0,0,0.010850694444444444,37.64105902777777,0)" xlink:href="#as"/><use transform="matrix(0.010850694444444444,0,0,0.010850694444444444,48.242187499999986,0)" xlink:href="#ae"/><use transform="matrix(0.010850694444444444,0,0,0.010850694444444444,60.70963541666666,0)" xlink:href="#aq"/><use transform="matrix(0.010850694444444444,0,0,0.010850694444444444,71.28906249999999,0)" xlink:href="#ag"/><use transform="matrix(0.010850694444444444,0,0,0.010850694444444444,84.92838541666666,0)" xlink:href="#ap"/><use transform="matrix(0.010850694444444444,0,0,0.010850694444444444,92.77343749999997,0)" xlink:href="#ah"/><use transform="matrix(0.010850694444444444,0,0,0.010850694444444444,98.39409722222221,0)" xlink:href="#au"/><use transform="matrix(0.010850694444444444,0,0,0.010850694444444444,105.92447916666666,0)" xlink:href="#as"/></g><path fill="#212529" d="M588-1114c260 0 384 106 385 366V0H850l-33-156h-8C708-34 639 17 442 20 231 23 94-94 94-303c0-221 177-337 531-348l186-6c11-203-40-320-233-320-91 0-195 28-310 84l-51-127c97-53 229-94 371-94zM268-301c-1 123 81 184 207 184 203 0 334-120 332-323v-99c-257 14-539-7-539 238zm214-1268c38 84 134 237 190 303v25H562c-75-57-234-227-283-307v-21h203" id="av"/><use transform="matrix(0.010850694444444444,0,0,0.010850694444444444,0,0)" xlink:href="#av" id="f"/><path fill="#212529" d="M342 0H176v-1556h166V0" id="aw"/><path fill="#212529" d="M340-893c80-153 237-262 467-211l-23 154c-45-10-85-15-120-15-184-3-322 182-322 377V0H176v-1096h137l19 203h8" id="ax"/><path fill="#212529" d="M125-741c0-247 161-377 414-375 57 0 109 7 155 20h379v105l-203 24c37 48 72 129 72 219 0 255-227 390-504 345-71 37-106 84-106 141 0 78 66 88 164 88h194c219-1 369 87 369 293 0 121-49 213-146 277s-239 96-426 96c-250 0-448-83-448-306C39 36 147-58 283-86c-52-23-102-79-99-152 4-104 57-143 133-192-107-42-192-164-192-311zM438-25c-143-1-242 70-239 209s131 181 290 181c139 0 242-21 309-63s101-98 101-169c0-147-88-158-262-158H438zm94-970c-158 0-243 88-243 250 0 153 93 233 246 233 162 0 243-79 243-236 0-165-82-247-246-247" id="ay"/><g id="g"><use transform="matrix(0.010850694444444444,0,0,0.010850694444444444,0,0)" xlink:href="#aw"/><use transform="matrix(0.010850694444444444,0,0,0.010850694444444444,5.620659722222222,0)" xlink:href="#ad"/><use transform="matrix(0.010850694444444444,0,0,0.010850694444444444,9.20138888888889,0)" xlink:href="#ae"/><use transform="matrix(0.010850694444444444,0,0,0.010850694444444444,21.668836805555557,0)" xlink:href="#ap"/><use transform="matrix(0.010850694444444444,0,0,0.010850694444444444,29.51388888888889,0)" xlink:href="#ax"/><use transform="matrix(0.010850694444444444,0,0,0.010850694444444444,38.14019097222222,0)" xlink:href="#ao"/><use transform="matrix(0.010850694444444444,0,0,0.010850694444444444,50.49913194444444,0)" xlink:href="#at"/><use transform="matrix(0.010850694444444444,0,0,0.010850694444444444,64.13845486111111,0)" xlink:href="#ay"/><use transform="matrix(0.010850694444444444,0,0,0.010850694444444444,76.31293402777779,0)" xlink:href="#aj"/><use transform="matrix(0.010850694444444444,0,0,0.010850694444444444,88.78038194444446,0)" xlink:href="#ax"/></g><path fill="#212529" d="M125-733c6-459 248-750 704-750 153 0 287 28 402 84l-72 146c-111-52-221-78-332-78-334-1-520 251-520 600 0 361 171 600 518 600 102 0 218-18 349-55v149C1073 1 948 20 799 20c-445 1-680-294-674-753" id="az"/><g id="h"><use transform="matrix(0.010850694444444442,0,0,0.010850694444444442,0,0)" xlink:href="#az"/><use transform="matrix(0.010850694444444442,0,0,0.010850694444444442,14.01909722222222,0)" xlink:href="#aj"/><use transform="matrix(0.010850694444444442,0,0,0.010850694444444442,26.486545138888882,0)" xlink:href="#as"/></g><use transform="matrix(0.010850694444444442,0,0,0.010850694444444442,0,0)" xlink:href="#am" id="i"/><g id="j"><use transform="matrix(0.010850694444444442,0,0,0.010850694444444442,0,0)" xlink:href="#an"/><use transform="matrix(0.010850694444444442,0,0,0.010850694444444442,20.670572916666664,0)" xlink:href="#ao"/><use transform="matrix(0.010850694444444442,0,0,0.010850694444444442,33.029513888888886,0)" xlink:href="#ap"/><use transform="matrix(0.010850694444444442,0,0,0.010850694444444442,40.874565972222214,0)" xlink:href="#aq"/><use transform="matrix(0.010850694444444442,0,0,0.010850694444444442,51.45399305555554,0)" xlink:href="#ar"/><use transform="matrix(0.010850694444444442,0,0,0.010850694444444442,65.0933159722222,0)" xlink:href="#as"/></g><g id="k"><use transform="matrix(0.010850694444444442,0,0,0.010850694444444442,0,0)" xlink:href="#as"/><use transform="matrix(0.010850694444444442,0,0,0.010850694444444442,10.60112847222222,0)" xlink:href="#al"/><use transform="matrix(0.010850694444444442,0,0,0.010850694444444442,24.023437499999996,0)" xlink:href="#at"/><use transform="matrix(0.010850694444444442,0,0,0.010850694444444442,37.66276041666666,0)" xlink:href="#ap"/></g><g id="l"><use transform="matrix(0.010850694444444442,0,0,0.010850694444444442,0,0)" xlink:href="#aq"/><use transform="matrix(0.010850694444444442,0,0,0.010850694444444442,10.579427083333332,0)" xlink:href="#al"/><use transform="matrix(0.010850694444444442,0,0,0.010850694444444442,24.001736111111107,0)" xlink:href="#at"/><use transform="matrix(0.010850694444444442,0,0,0.010850694444444442,37.64105902777777,0)" xlink:href="#ap"/><use transform="matrix(0.010850694444444442,0,0,0.010850694444444442,45.4861111111111,0)" xlink:href="#ax"/><use transform="matrix(0.010850694444444442,0,0,0.010850694444444442,54.11241319444442,0)" xlink:href="#aj"/></g><g id="m"><use transform="matrix(0.010850694444444442,0,0,0.010850694444444442,0,0)" xlink:href="#aw"/><use transform="matrix(0.010850694444444442,0,0,0.010850694444444442,5.620659722222221,0)" xlink:href="#aj"/></g><path fill="#212529" d="M995-51C878-2 799 19 639 20c-329 2-524-221-524-559 0-326 172-577 481-577 278 0 451 210 446 493v105H287c4 242 121 392 358 393 118 0 235-25 350-74v148zM864-653c2-195-85-324-270-324-190 0-288 139-303 324h573zm-187-916c72 117 132 172 256 305v23H814c-59-37-132-99-221-186-91 89-164 151-219 186H259v-23c128-140 176-186 252-305h166" id="aA"/><g id="n"><use transform="matrix(0.010850694444444442,0,0,0.010850694444444442,0,0)" xlink:href="#an"/><use transform="matrix(0.010850694444444442,0,0,0.010850694444444442,20.670572916666664,0)" xlink:href="#aA"/><use transform="matrix(0.010850694444444442,0,0,0.010850694444444442,33.13802083333333,0)" xlink:href="#an"/><use transform="matrix(0.010850694444444442,0,0,0.010850694444444442,53.80859374999999,0)" xlink:href="#aj"/></g><path fill="#212529" d="M115-545c0-330 146-571 454-571 149 0 263 54 342 162h13c-20-185-8-401-11-602h166V0H944l-22-147h-9C836-36 722 20 569 20c-309 0-454-234-454-565zm172 2c0 249 78 424 303 424 257 0 327-150 323-426-4-282-68-432-325-432-220 0-301 191-301 434" id="aB"/><path fill="#212529" d="M516-150c94-315 146-423 332-946h178L610 0H416L0-1096h178c98 281 253 670 330 946h8" id="aC"/><g id="o"><use transform="matrix(0.010850694444444442,0,0,0.010850694444444442,0,0)" xlink:href="#ao"/><use transform="matrix(0.010850694444444442,0,0,0.010850694444444442,12.35894097222222,0)" xlink:href="#aB"/><use transform="matrix(0.010850694444444442,0,0,0.010850694444444442,25.976562499999996,0)" xlink:href="#aC"/><use transform="matrix(0.010850694444444442,0,0,0.010850694444444442,37.10937499999999,0)" xlink:href="#aj"/><use transform="matrix(0.010850694444444442,0,0,0.010850694444444442,49.57682291666666,0)" xlink:href="#ax"/><use transform="matrix(0.010850694444444442,0,0,0.010850694444444442,58.64800347222221,0)" xlink:href="#as"/><use transform="matrix(0.010850694444444442,0,0,0.010850694444444442,69.24913194444443,0)" xlink:href="#ao"/><use transform="matrix(0.010850694444444442,0,0,0.010850694444444442,81.60807291666664,0)" xlink:href="#ah"/><use transform="matrix(0.010850694444444442,0,0,0.010850694444444442,87.22873263888886,0)" xlink:href="#ax"/><use transform="matrix(0.010850694444444442,0,0,0.010850694444444442,95.85503472222219,0)" xlink:href="#aj"/></g><g id="p"><use transform="matrix(0.010850694444444442,0,0,0.010850694444444442,0,0)" xlink:href="#ac"/><use transform="matrix(0.010850694444444442,0,0,0.010850694444444442,9.754774305555554,0)" xlink:href="#ad"/><use transform="matrix(0.010850694444444442,0,0,0.010850694444444442,13.33550347222222,0)" xlink:href="#ae"/><use transform="matrix(0.010850694444444442,0,0,0.010850694444444442,25.802951388888882,0)" xlink:href="#af"/><use transform="matrix(0.010850694444444442,0,0,0.010850694444444442,39.42057291666666,0)" xlink:href="#ag"/><use transform="matrix(0.010850694444444442,0,0,0.010850694444444442,53.05989583333332,0)" xlink:href="#ah"/><use transform="matrix(0.010850694444444442,0,0,0.010850694444444442,58.68055555555554,0)" xlink:href="#ai"/><use transform="matrix(0.010850694444444442,0,0,0.010850694444444442,72.29817708333331,0)" xlink:href="#aj"/></g><use transform="matrix(0.010850694444444442,0,0,0.010850694444444442,0,0)" xlink:href="#ao" id="q"/><g id="r"><use transform="matrix(0.010850694444444442,0,0,0.010850694444444442,0,0)" xlink:href="#ao"/><use transform="matrix(0.010850694444444442,0,0,0.010850694444444442,12.35894097222222,0)" xlink:href="#ag"/></g><g id="s"><use transform="matrix(0.010850694444444442,0,0,0.010850694444444442,0,0)" xlink:href="#an"/><use transform="matrix(0.010850694444444442,0,0,0.010850694444444442,20.670572916666664,0)" xlink:href="#al"/><use transform="matrix(0.010850694444444442,0,0,0.010850694444444442,34.09288194444444,0)" xlink:href="#ah"/><use transform="matrix(0.010850694444444442,0,0,0.010850694444444442,39.713541666666664,0)" xlink:href="#at"/><use transform="matrix(0.010850694444444442,0,0,0.010850694444444442,53.352864583333336,0)" xlink:href="#as"/></g><path fill="#212529" d="M512-123c223 0 372-106 371-323 0-204-125-306-375-306-63 0-148 10-254 29l-86-55 55-684h727v153H365l-37 439c77-15 153-23 229-23 289 0 496 151 496 428 0 312-221 485-543 485-165 0-290-26-377-79v-160c85 57 241 96 379 96" id="aD"/><use transform="matrix(0.010850694444444442,0,0,0.010850694444444442,0,0)" xlink:href="#aD" id="t"/><g id="u"><use transform="matrix(0.010850694444444442,0,0,0.010850694444444442,0,0)" xlink:href="#ak"/><use transform="matrix(0.010850694444444442,0,0,0.010850694444444442,5.620659722222221,0)" xlink:href="#al"/><use transform="matrix(0.010850694444444442,0,0,0.010850694444444442,19.042968749999996,0)" xlink:href="#ag"/><use transform="matrix(0.010850694444444442,0,0,0.010850694444444442,32.68229166666666,0)" xlink:href="#ax"/><use transform="matrix(0.010850694444444442,0,0,0.010850694444444442,41.753472222222214,0)" xlink:href="#as"/></g><g id="v"><use transform="matrix(0.010850694444444442,0,0,0.010850694444444442,0,0)" xlink:href="#aB"/><use transform="matrix(0.010850694444444442,0,0,0.010850694444444442,13.617621527777775,0)" xlink:href="#aj"/></g><g id="w"><use transform="matrix(0.010850694444444442,0,0,0.010850694444444442,0,0)" xlink:href="#aq"/><use transform="matrix(0.010850694444444442,0,0,0.010850694444444442,10.579427083333332,0)" xlink:href="#al"/><use transform="matrix(0.010850694444444442,0,0,0.010850694444444442,24.001736111111107,0)" xlink:href="#at"/><use transform="matrix(0.010850694444444442,0,0,0.010850694444444442,37.64105902777777,0)" xlink:href="#ay"/><use transform="matrix(0.010850694444444442,0,0,0.010850694444444442,49.815538194444436,0)" xlink:href="#ae"/></g><g id="x"><use transform="matrix(0.010850694444444442,0,0,0.010850694444444442,0,0)" xlink:href="#aj"/><use transform="matrix(0.010850694444444442,0,0,0.010850694444444442,12.467447916666664,0)" xlink:href="#at"/><use transform="matrix(0.010850694444444442,0,0,0.010850694444444442,26.10677083333333,0)" xlink:href="#ap"/><use transform="matrix(0.010850694444444442,0,0,0.010850694444444442,33.95182291666666,0)" xlink:href="#ax"/><use transform="matrix(0.010850694444444442,0,0,0.010850694444444442,42.578124999999986,0)" xlink:href="#aj"/></g><g id="y"><use transform="matrix(0.010850694444444442,0,0,0.010850694444444442,0,0)" xlink:href="#aw"/><use transform="matrix(0.010850694444444442,0,0,0.010850694444444442,5.620659722222221,0)" xlink:href="#aj"/><use transform="matrix(0.010850694444444442,0,0,0.010850694444444442,18.088107638888886,0)" xlink:href="#as"/></g><g id="z"><use transform="matrix(0.010850694444444442,0,0,0.010850694444444442,0,0)" xlink:href="#an"/><use transform="matrix(0.010850694444444442,0,0,0.010850694444444442,20.670572916666664,0)" xlink:href="#ao"/><use transform="matrix(0.010850694444444442,0,0,0.010850694444444442,33.029513888888886,0)" xlink:href="#ap"/><use transform="matrix(0.010850694444444442,0,0,0.010850694444444442,40.874565972222214,0)" xlink:href="#aq"/><use transform="matrix(0.010850694444444442,0,0,0.010850694444444442,51.45399305555554,0)" xlink:href="#ar"/><use transform="matrix(0.010850694444444442,0,0,0.010850694444444442,65.0933159722222,0)" xlink:href="#as"/></g><path fill="#212529" d="M1036-1462h183L692 0H524L0-1462h180l336 946c39 109 69 214 92 317 24-108 55-216 94-323" id="aE"/><path fill="#212529" d="M526-162c88-293 120-356 326-934h178L559 152c-47 123-102 209-163 262-93 80-237 94-380 61V342c184 39 305-9 367-180L444 6 2-1096h178c103 283 263 645 338 934h8" id="aF"/><g id="A"><use transform="matrix(0.010850694444444444,0,0,0.010850694444444444,0,0)" xlink:href="#aE"/><use transform="matrix(0.010850694444444444,0,0,0.010850694444444444,12.782118055555555,0)" xlink:href="#al"/><use transform="matrix(0.010850694444444444,0,0,0.010850694444444444,25.75954861111111,0)" xlink:href="#aF"/><use transform="matrix(0.010850694444444444,0,0,0.010850694444444444,36.95746527777778,0)" xlink:href="#ao"/><use transform="matrix(0.010850694444444444,0,0,0.010850694444444444,49.31640625,0)" xlink:href="#ay"/><use transform="matrix(0.010850694444444444,0,0,0.010850694444444444,61.490885416666664,0)" xlink:href="#aj"/></g><g id="B"><use transform="matrix(0.010850694444444444,0,0,0.010850694444444444,0,0)" xlink:href="#ah"/><use transform="matrix(0.010850694444444444,0,0,0.010850694444444444,5.620659722222222,0)" xlink:href="#an"/><use transform="matrix(0.010850694444444444,0,0,0.010850694444444444,26.29123263888889,0)" xlink:href="#an"/><use transform="matrix(0.010850694444444444,0,0,0.010850694444444444,46.96180555555556,0)" xlink:href="#ae"/><use transform="matrix(0.010850694444444444,0,0,0.010850694444444444,59.42925347222221,0)" xlink:href="#aB"/><use transform="matrix(0.010850694444444444,0,0,0.010850694444444444,73.04687499999999,0)" xlink:href="#ah"/><use transform="matrix(0.010850694444444444,0,0,0.010850694444444444,78.66753472222221,0)" xlink:href="#ao"/><use transform="matrix(0.010850694444444444,0,0,0.010850694444444444,91.02647569444441,0)" xlink:href="#ap"/><use transform="matrix(0.010850694444444444,0,0,0.010850694444444444,98.87152777777776,0)" xlink:href="#aj"/><use transform="matrix(0.010850694444444444,0,0,0.010850694444444444,111.33897569444441,0)" xlink:href="#an"/><use transform="matrix(0.010850694444444444,0,0,0.010850694444444444,132.0095486111111,0)" xlink:href="#aj"/><use transform="matrix(0.010850694444444444,0,0,0.010850694444444444,144.47699652777774,0)" xlink:href="#at"/><use transform="matrix(0.010850694444444444,0,0,0.010850694444444444,158.1163194444444,0)" xlink:href="#ap"/></g><g id="C"><use transform="matrix(0.010850694444444444,0,0,0.010850694444444444,0,0)" xlink:href="#aC"/><use transform="matrix(0.010850694444444444,0,0,0.010850694444444444,11.1328125,0)" xlink:href="#aj"/><use transform="matrix(0.010850694444444444,0,0,0.010850694444444444,23.600260416666664,0)" xlink:href="#ax"/><use transform="matrix(0.010850694444444444,0,0,0.010850694444444444,32.67144097222222,0)" xlink:href="#as"/></g><g id="D"><use transform="matrix(0.010850694444444444,0,0,0.010850694444444444,0,0)" xlink:href="#aw"/><use transform="matrix(0.010850694444444444,0,0,0.010850694444444444,5.620659722222222,0)" xlink:href="#aj"/></g><g id="E"><use transform="matrix(0.010850694444444444,0,0,0.010850694444444444,0,0)" xlink:href="#ai"/><use transform="matrix(0.010850694444444444,0,0,0.010850694444444444,13.617621527777777,0)" xlink:href="#ax"/><use transform="matrix(0.010850694444444444,0,0,0.010850694444444444,22.24392361111111,0)" xlink:href="#al"/><use transform="matrix(0.010850694444444444,0,0,0.010850694444444444,35.666232638888886,0)" xlink:href="#aq"/><use transform="matrix(0.010850694444444444,0,0,0.010850694444444444,46.24565972222221,0)" xlink:href="#ar"/><use transform="matrix(0.010850694444444444,0,0,0.010850694444444444,59.88498263888888,0)" xlink:href="#ao"/><use transform="matrix(0.010850694444444444,0,0,0.010850694444444444,72.2439236111111,0)" xlink:href="#ah"/><use transform="matrix(0.010850694444444444,0,0,0.010850694444444444,77.86458333333333,0)" xlink:href="#at"/></g><g id="F"><use transform="matrix(0.010850694444444444,0,0,0.010850694444444444,0,0)" xlink:href="#ao"/><use transform="matrix(0.010850694444444444,0,0,0.010850694444444444,12.358940972222221,0)" xlink:href="#aB"/><use transform="matrix(0.010850694444444444,0,0,0.010850694444444444,25.9765625,0)" xlink:href="#aC"/><use transform="matrix(0.010850694444444444,0,0,0.010850694444444444,37.109375,0)" xlink:href="#aj"/><use transform="matrix(0.010850694444444444,0,0,0.010850694444444444,49.576822916666664,0)" xlink:href="#ax"/><use transform="matrix(0.010850694444444444,0,0,0.010850694444444444,58.64800347222222,0)" xlink:href="#as"/><use transform="matrix(0.010850694444444444,0,0,0.010850694444444444,69.24913194444444,0)" xlink:href="#ao"/><use transform="matrix(0.010850694444444444,0,0,0.010850694444444444,81.60807291666666,0)" xlink:href="#ah"/><use transform="matrix(0.010850694444444444,0,0,0.010850694444444444,87.22873263888889,0)" xlink:href="#ax"/><use transform="matrix(0.010850694444444444,0,0,0.010850694444444444,95.85503472222221,0)" xlink:href="#aj"/></g><path fill="#212529" d="M602-1462c329 0 526 109 526 413 0 193-98 324-294 392L1231 0h-201L676-608H371V0H201v-1462h401zm350 422c0-215-129-271-360-273H371v559h233c223 0 348-78 348-286" id="aG"/><g id="G"><use transform="matrix(0.010850694444444444,0,0,0.010850694444444444,0,0)" xlink:href="#aG"/><use transform="matrix(0.010850694444444444,0,0,0.010850694444444444,13.736979166666666,0)" xlink:href="#aj"/><use transform="matrix(0.010850694444444444,0,0,0.010850694444444444,26.204427083333332,0)" xlink:href="#ap"/><use transform="matrix(0.010850694444444444,0,0,0.010850694444444444,34.049479166666664,0)" xlink:href="#al"/><use transform="matrix(0.010850694444444444,0,0,0.010850694444444444,47.47178819444444,0)" xlink:href="#ag"/><use transform="matrix(0.010850694444444444,0,0,0.010850694444444444,61.11111111111111,0)" xlink:href="#ax"/></g><g id="H"><use transform="matrix(0.010850694444444444,0,0,0.010850694444444444,0,0)" xlink:href="#ao"/><use transform="matrix(0.010850694444444444,0,0,0.010850694444444444,12.358940972222221,0)" xlink:href="#ag"/></g><g id="I"><use transform="matrix(0.010850694444444444,0,0,0.010850694444444444,0,0)" xlink:href="#aB"/><use transform="matrix(0.010850694444444444,0,0,0.010850694444444444,13.617621527777777,0)" xlink:href="#al"/><use transform="matrix(0.010850694444444444,0,0,0.010850694444444444,27.039930555555554,0)" xlink:href="#an"/><use transform="matrix(0.010850694444444444,0,0,0.010850694444444444,47.71050347222221,0)" xlink:href="#ah"/><use transform="matrix(0.010850694444444444,0,0,0.010850694444444444,53.331163194444436,0)" xlink:href="#aq"/><use transform="matrix(0.010850694444444444,0,0,0.010850694444444444,63.91059027777778,0)" xlink:href="#ah"/><use transform="matrix(0.010850694444444444,0,0,0.010850694444444444,69.53125,0)" xlink:href="#aw"/><use transform="matrix(0.010850694444444444,0,0,0.010850694444444444,75.15190972222223,0)" xlink:href="#aj"/></g><g id="J"><use transform="matrix(0.010850694444444444,0,0,0.010850694444444444,0,0)" xlink:href="#aB"/><use transform="matrix(0.010850694444444444,0,0,0.010850694444444444,13.617621527777777,0)" xlink:href="#aj"/></g><g id="K"><use transform="matrix(0.010850694444444444,0,0,0.010850694444444444,0,0)" xlink:href="#aw"/><use transform="matrix(0.010850694444444444,0,0,0.010850694444444444,5.620659722222222,0)" xlink:href="#ad"/><use transform="matrix(0.010850694444444444,0,0,0.010850694444444444,9.20138888888889,0)" xlink:href="#ae"/><use transform="matrix(0.010850694444444444,0,0,0.010850694444444444,21.668836805555557,0)" xlink:href="#af"/><use transform="matrix(0.010850694444444444,0,0,0.010850694444444444,35.286458333333336,0)" xlink:href="#ag"/><use transform="matrix(0.010850694444444444,0,0,0.010850694444444444,48.92578125,0)" xlink:href="#ah"/><use transform="matrix(0.010850694444444444,0,0,0.010850694444444444,54.54644097222222,0)" xlink:href="#ai"/><use transform="matrix(0.010850694444444444,0,0,0.010850694444444444,68.1640625,0)" xlink:href="#aj"/></g><g id="L"><use transform="matrix(0.010850694444444442,0,0,0.010850694444444442,0,0)" xlink:href="#ac"/><use transform="matrix(0.010850694444444442,0,0,0.010850694444444442,9.754774305555554,0)" xlink:href="#ad"/><use transform="matrix(0.010850694444444442,0,0,0.010850694444444442,13.780381944444441,0)" xlink:href="#ao"/><use transform="matrix(0.010850694444444442,0,0,0.010850694444444442,26.13932291666666,0)" xlink:href="#aB"/><use transform="matrix(0.010850694444444442,0,0,0.010850694444444442,39.756944444444436,0)" xlink:href="#aC"/><use transform="matrix(0.010850694444444442,0,0,0.010850694444444442,50.889756944444436,0)" xlink:href="#aj"/><use transform="matrix(0.010850694444444442,0,0,0.010850694444444442,63.3572048611111,0)" xlink:href="#ax"/><use transform="matrix(0.010850694444444442,0,0,0.010850694444444442,72.42838541666666,0)" xlink:href="#as"/><use transform="matrix(0.010850694444444442,0,0,0.010850694444444442,83.02951388888887,0)" xlink:href="#ao"/><use transform="matrix(0.010850694444444442,0,0,0.010850694444444442,95.38845486111109,0)" xlink:href="#ah"/><use transform="matrix(0.010850694444444442,0,0,0.010850694444444442,101.00911458333331,0)" xlink:href="#ax"/><use transform="matrix(0.010850694444444442,0,0,0.010850694444444442,109.63541666666664,0)" xlink:href="#aj"/></g><g id="M"><use transform="matrix(0.010850694444444442,0,0,0.010850694444444442,0,0)" xlink:href="#ai"/><use transform="matrix(0.010850694444444442,0,0,0.010850694444444442,13.617621527777775,0)" xlink:href="#aw"/><use transform="matrix(0.010850694444444442,0,0,0.010850694444444442,19.238281249999996,0)" xlink:href="#ag"/><use transform="matrix(0.010850694444444442,0,0,0.010850694444444442,32.87760416666666,0)" xlink:href="#as"/></g><path fill="#212529" d="M995-51C878-2 799 19 639 20c-329 2-524-221-524-559 0-326 172-577 481-577 278 0 451 210 446 493v105H287c4 242 121 392 358 393 118 0 235-25 350-74v148zM864-653c2-195-85-324-270-324-190 0-288 139-303 324h573zm-343-916c38 84 134 237 190 303v25H601c-75-57-234-227-283-307v-21h203" id="aH"/><g id="N"><use transform="matrix(0.010850694444444442,0,0,0.010850694444444442,0,0)" xlink:href="#ai"/><use transform="matrix(0.010850694444444442,0,0,0.010850694444444442,13.617621527777775,0)" xlink:href="#ax"/><use transform="matrix(0.010850694444444442,0,0,0.010850694444444442,22.243923611111107,0)" xlink:href="#aH"/><use transform="matrix(0.010850694444444442,0,0,0.010850694444444442,34.71137152777777,0)" xlink:href="#as"/></g><g id="O"><use transform="matrix(0.010850694444444442,0,0,0.010850694444444442,0,0)" xlink:href="#aj"/><use transform="matrix(0.010850694444444442,0,0,0.010850694444444442,12.467447916666664,0)" xlink:href="#as"/><use transform="matrix(0.010850694444444442,0,0,0.010850694444444442,23.068576388888886,0)" xlink:href="#ap"/></g><use transform="matrix(0.010850694444444442,0,0,0.010850694444444442,0,0)" xlink:href="#av" id="P"/><path fill="#212529" d="M1069-733c0 253-39 441-119 566S748 20 584 20c-157 0-277-64-359-192S102-486 102-733c0-255 40-444 119-567s200-185 363-185c159 0 280 64 362 193s123 315 123 559zm-724-463c-95 160-94 768 0 928 55 94 130 145 239 145 111 0 185-52 240-147 94-164 94-761 0-924-55-95-129-147-240-147-109 0-184 52-239 145" id="aI"/><g id="Q"><use transform="matrix(0.010850694444444442,0,0,0.010850694444444442,0,0)" xlink:href="#am"/><use transform="matrix(0.010850694444444442,0,0,0.010850694444444442,12.706163194444441,0)" xlink:href="#aI"/><use transform="matrix(0.010850694444444442,0,0,0.010850694444444442,25.412326388888882,0)" xlink:href="#aI"/><use transform="matrix(0.010850694444444442,0,0,0.010850694444444442,38.11848958333332,0)" xlink:href="#aI"/></g><path fill="#212529" d="M340-561c134-179 332-366 485-535h197L578-629 1053 0H852L465-518 340-410V0H176v-1556h164c-4 336 9 669-8 995h8" id="aJ"/><g id="R"><use transform="matrix(0.010850694444444442,0,0,0.010850694444444442,0,0)" xlink:href="#aJ"/><use transform="matrix(0.010850694444444442,0,0,0.010850694444444442,11.664496527777775,0)" xlink:href="#an"/></g><g id="S"><use transform="matrix(0.010850694444444442,0,0,0.010850694444444442,0,0)" xlink:href="#aB"/><use transform="matrix(0.010850694444444442,0,0,0.010850694444444442,13.617621527777775,0)" xlink:href="#ag"/></g><g id="T"><use transform="matrix(0.010850694444444442,0,0,0.010850694444444442,0,0)" xlink:href="#aB"/><use transform="matrix(0.010850694444444442,0,0,0.010850694444444442,13.617621527777775,0)" xlink:href="#al"/><use transform="matrix(0.010850694444444442,0,0,0.010850694444444442,27.03993055555555,0)" xlink:href="#an"/><use transform="matrix(0.010850694444444442,0,0,0.010850694444444442,47.710503472222214,0)" xlink:href="#ah"/><use transform="matrix(0.010850694444444442,0,0,0.010850694444444442,53.331163194444436,0)" xlink:href="#aq"/><use transform="matrix(0.010850694444444442,0,0,0.010850694444444442,63.91059027777778,0)" xlink:href="#ah"/><use transform="matrix(0.010850694444444442,0,0,0.010850694444444442,69.53125,0)" xlink:href="#aw"/><use transform="matrix(0.010850694444444442,0,0,0.010850694444444442,75.15190972222223,0)" xlink:href="#aj"/></g><g id="U"><use transform="matrix(0.010850694444444442,0,0,0.010850694444444442,0,0)" xlink:href="#aw"/><use transform="matrix(0.010850694444444442,0,0,0.010850694444444442,5.620659722222221,0)" xlink:href="#ad"/><use transform="matrix(0.010850694444444442,0,0,0.010850694444444442,9.201388888888888,0)" xlink:href="#ae"/><use transform="matrix(0.010850694444444442,0,0,0.010850694444444442,21.66883680555555,0)" xlink:href="#af"/><use transform="matrix(0.010850694444444442,0,0,0.010850694444444442,35.28645833333333,0)" xlink:href="#ag"/><use transform="matrix(0.010850694444444442,0,0,0.010850694444444442,48.92578124999999,0)" xlink:href="#ah"/><use transform="matrix(0.010850694444444442,0,0,0.010850694444444442,54.546440972222214,0)" xlink:href="#ai"/><use transform="matrix(0.010850694444444442,0,0,0.010850694444444442,68.16406249999999,0)" xlink:href="#aj"/></g><path fill="#212529" d="M557-1483c261-2 449 121 449 365 0 202-125 312-301 348v8c212 25 346 130 346 348 0 303-232 437-557 434C328 19 210-2 94-59v-158c108 55 257 96 406 96 253 0 379-99 379-297 0-177-139-266-418-266H317v-143h146c207 3 370-92 371-285 1-150-117-233-273-229-171 4-249 44-375 122l-84-112c109-87 268-150 455-152" id="aK"/><use transform="matrix(0.010850694444444442,0,0,0.010850694444444442,0,0)" xlink:href="#aK" id="V"/><path fill="#212529" d="M1481 0h-394L451-1106h-9c33 431 14 683 19 1106H184v-1462h391l635 1095h7c-26-429-11-678-15-1095h279V0" id="aL"/><path fill="#212529" d="M633-893c-183 0-230 133-230 332s48 336 232 336c183 0 229-137 229-336s-47-332-231-332zm4-246c347 5 535 225 539 578S978 25 631 20C283 15 96-208 92-561c-4-355 196-583 545-578" id="aM"/><path fill="#212529" d="M795-1139c261-1 398 148 397 410V0H887v-653c-1-148-42-242-180-242-202 0-242 139-242 369V0H160v-1118h233l41 143h17c62-102 185-163 344-164" id="aN"/><g id="W"><use transform="matrix(0.008680555555555556,0,0,0.008680555555555556,0,0)" xlink:href="#aL"/><use transform="matrix(0.008680555555555556,0,0,0.008680555555555556,14.453125,0)" xlink:href="#aM"/><use transform="matrix(0.008680555555555556,0,0,0.008680555555555556,25.460069444444443,0)" xlink:href="#aN"/></g><path fill="#212529" d="M817-1485c460 0 694 282 694 752 0 468-238 753-696 753-459 0-696-285-696-755 0-471 238-750 698-750zm0 258c-273 0-374 198-373 494 0 296 98 493 371 493 247 0 371-164 371-493s-123-494-369-494" id="aO"/><path fill="#212529" d="M639-223c202 0 242-139 242-369v-526h305V0H952l-41-143h-16C834-43 709 20 551 20c-263 0-397-147-397-409v-729h305v653c1 148 42 242 180 242" id="aP"/><path fill="#212529" d="M479-1407c-1 99-61 150-166 150-111 0-166-50-166-150 0-99 55-149 166-149s166 50 166 149zM465 0H160v-1118h305V0" id="aQ"/><g id="X"><use transform="matrix(0.008680555555555556,0,0,0.008680555555555556,0,0)" xlink:href="#aO"/><use transform="matrix(0.008680555555555556,0,0,0.008680555555555556,14.149305555555555,0)" xlink:href="#aP"/><use transform="matrix(0.008680555555555556,0,0,0.008680555555555556,25.833333333333336,0)" xlink:href="#aQ"/></g><path fill="#212529" d="M1120 0L938-465H352L172 0H0l578-1468h143L1296 0h-176zM885-618c-81-228-168-420-238-664-57 230-159 449-235 664h473" id="aR"/><g id="Y"><use transform="matrix(0.010850694444444444,0,0,0.010850694444444444,0,0)" xlink:href="#aR"/><use transform="matrix(0.010850694444444444,0,0,0.010850694444444444,14.0625,0)" xlink:href="#ag"/><use transform="matrix(0.010850694444444444,0,0,0.010850694444444444,27.701822916666664,0)" xlink:href="#aq"/><use transform="matrix(0.010850694444444444,0,0,0.010850694444444444,38.28125,0)" xlink:href="#ag"/><use transform="matrix(0.010850694444444444,0,0,0.010850694444444444,51.920572916666664,0)" xlink:href="#at"/></g><g id="Z"><use transform="matrix(0.010850694444444444,0,0,0.010850694444444444,0,0)" xlink:href="#aC"/><use transform="matrix(0.010850694444444444,0,0,0.010850694444444444,11.1328125,0)" xlink:href="#al"/><use transform="matrix(0.010850694444444444,0,0,0.010850694444444444,24.110243055555554,0)" xlink:href="#aF"/><use transform="matrix(0.010850694444444444,0,0,0.010850694444444444,35.30815972222222,0)" xlink:href="#ao"/><use transform="matrix(0.010850694444444444,0,0,0.010850694444444444,47.66710069444444,0)" xlink:href="#ay"/><use transform="matrix(0.010850694444444444,0,0,0.010850694444444444,59.84157986111111,0)" xlink:href="#aj"/></g><g id="aa"><use transform="matrix(0.008680555555555556,0,0,0.008680555555555556,0,0)" xlink:href="#aO"/><use transform="matrix(0.008680555555555556,0,0,0.008680555555555556,14.149305555555555,0)" xlink:href="#aP"/><use transform="matrix(0.008680555555555556,0,0,0.008680555555555556,25.833333333333336,0)" xlink:href="#aQ"/></g><g id="ab"><use transform="matrix(0.008680555555555556,0,0,0.008680555555555556,0,0)" xlink:href="#aL"/><use transform="matrix(0.008680555555555556,0,0,0.008680555555555556,14.453125,0)" xlink:href="#aM"/><use transform="matrix(0.008680555555555556,0,0,0.008680555555555556,25.460069444444443,0)" xlink:href="#aN"/></g></defs></g></svg>